# xmcd
#
# Track frame offsets: 
#        150
#        10137
#        25390
#        39390
#        54570
#        63361
#        79256
#        86021
#        97175
#        106081
#        118693
#        135211
#        143553
#        159278
#        169295
#        183376
#        194498
#        210333
#        219310
#        229584
#
# Disc length: 3234 seconds
#
# Revision: 0
# Processed by: cddbd v1.5.2PL0 Copyright (c) Steve Scherf et al.
# Submitted via: ExactAudioCopy v0.99pb3
#
DISCID=060ca014
DTITLE=Boxcar Willie - King of The Road-20 Great Tracks
DYEAR=1980
DGENRE=Country
TTITLE0=King of The Road
TTITLE1=Wabash Cannonball
TTITLE2=You Are My Sunshine
TTITLE3=Boxcar Blues
TTITLE4=Don't Let The Stars Get In Your Eyes
TTITLE5=Your Cheatin' Heart
TTITLE6=I Saw The Light
TTITLE7=Wreck of the Old 97
TTITLE8=Hank and The Hobo
TTITLE9=Peace In The Valley
TTITLE10=Mule Train
TTITLE11=Hey Good Lookin'
TTITLE12=Kaw-Liga
TTITLE13=Move It On Over
TTITLE14=London Leaves
TTITLE15=Rollin' In My Sweet Baby's Arms
TTITLE16=Red River Valley
TTITLE17=Divorce Me COD
TTITLE18=Heaven
TTITLE19=San Antonio Rose
EXTD=
EXTT0=
EXTT1=
EXTT2=
EXTT3=
EXTT4=
EXTT5=
EXTT6=
EXTT7=
EXTT8=
EXTT9=
EXTT10=
EXTT11=
EXTT12=
EXTT13=
EXTT14=
EXTT15=
EXTT16=
EXTT17=
EXTT18=
EXTT19=
PLAYORDER=
